<?xml version="1.0" encoding="UTF-8"?>
<!DOCTYPE svg PUBLIC "-//W3C//DTD SVG 1.1//EN" "http://www.w3.org/Graphics/SVG/1.1/DTD/svg11.dtd">
<!-- Creator: CorelDRAW X7 -->
<svg xmlns="http://www.w3.org/2000/svg" xml:space="preserve" width="400px" height="148px" version="1.1" style="shape-rendering:geometricPrecision; text-rendering:geometricPrecision; image-rendering:optimizeQuality; fill-rule:evenodd; clip-rule:evenodd"
viewBox="0 0 408 151"
 xmlns:xlink="http://www.w3.org/1999/xlink">
 <defs>
  <style type="text/css">
   <![CDATA[
    .fil1 {fill:#333333}
    .fil0 {fill:#CC9933}
    .fil2 {fill:#333333;fill-rule:nonzero}
    .fil3 {fill:#CC9933;fill-rule:nonzero}
   ]]>
  </style>
 </defs>
 <g id="Layer_x0020_1">
  <metadata id="CorelCorpID_0Corel-Layer"/>
  <path class="fil0" d="M89 67l0 9 0 6 0 5 0 5 -47 0 -2 0 0 2 0 6 0 12 0 15 -15 0 0 -7 0 -8 0 -20 0 -16 0 -27 32 -20 32 20 0 14 0 4zm-16 9l0 -9 0 -9 -16 -10 -17 10 0 18 2 0 31 0z"/>
  <polygon class="fil1" points="4,33 57,0 83,16 83,0 98,0 98,26 113,35 113,76 98,76 98,44 57,18 15,44 15,136 98,136 98,100 113,100 113,151 0,151 0,35 "/>
  <path class="fil2" d="M133 93c-4,-4 -5,-9 -5,-14 0,-6 2,-11 5,-14 4,-4 9,-6 14,-6 2,0 3,0 5,1 1,0 3,0 5,1 1,0 3,1 4,2 1,1 1,2 1,4l0 5 -6 0 0 -3c0,-1 -1,-2 -2,-2 -1,-1 -2,-1 -3,-2 -1,0 -2,0 -3,0 -4,0 -7,1 -9,4 -3,2 -4,5 -4,9 0,5 1,8 4,11 2,2 5,4 9,4 1,0 2,0 3,-1 1,0 3,0 4,-1 1,0 1,-1 1,-2l0 -3 7 0 0 5c0,2 -1,3 -2,4 -1,1 -2,2 -4,2 -1,1 -3,1 -5,1 -1,1 -3,1 -4,1 -6,0 -11,-2 -15,-6z"/>
  <path id="1" class="fil2" d="M168 98l0 -5 5 0 0 -28 -5 0 0 -5 17 0c3,0 5,0 7,1 3,0 4,2 5,3 2,2 2,4 2,7 0,3 0,5 -2,7 -1,1 -3,3 -5,3l0 1 1 0c0,1 1,1 1,2l4 8c1,0 2,1 3,1l1 0 0 5 -4 0c-2,0 -3,0 -4,-1 0,0 -1,-1 -2,-2l-5 -10c0,0 -1,-1 -1,-1 -1,0 -2,-1 -3,-1l-3 0 0 10 4 0 0 5 -16 0zm12 -20l6 0c2,0 4,-1 5,-2 1,-1 1,-3 1,-5 0,-2 -1,-4 -3,-5 -1,0 -2,-1 -4,-1l-5 0 0 13z"/>
  <polygon id="2" class="fil2" points="207,98 207,93 211,93 211,65 207,65 207,60 235,60 235,70 229,70 229,65 218,65 218,76 231,76 231,82 218,82 218,92 230,92 230,88 236,88 236,98 "/>
  <path id="3" class="fil2" d="M239 98l0 -5 4 0 11 -33 8 0 12 33 3 0 0 5 -14 0 0 -5 4 0 -3 -8 -12 0 -2 8 4 0 0 5 -15 0zm15 -18l9 0 -4 -11 -1 -2c0,-1 0,-1 0,-1l0 0 0 1c0,0 0,0 0,1 0,0 0,1 -1,1l-3 11z"/>
  <polygon id="4" class="fil2" points="277,71 277,60 310,60 310,71 304,71 304,65 297,65 297,93 302,93 302,98 285,98 285,93 290,93 290,65 283,65 283,71 "/>
  <polygon id="5" class="fil2" points="314,98 314,93 319,93 319,65 314,65 314,60 331,60 331,65 326,65 326,93 331,93 331,98 "/>
  <path id="6" class="fil2" d="M334 65l0 -5 15 0 0 5 -4 0 7 22c0,0 0,1 0,1 0,1 0,1 0,1l1 1 0 0 0 -1c0,0 0,0 0,-1 0,0 0,-1 1,-1l7 -22 -4 0 0 -5 15 0 0 5 -4 0 -12 33 -7 0 -12 -33 -3 0z"/>
  <polygon id="7" class="fil2" points="375,98 375,93 379,93 379,65 375,65 375,60 403,60 403,70 397,70 397,65 386,65 386,76 399,76 399,82 386,82 386,92 398,92 398,88 404,88 404,98 "/>
  <path class="fil3" d="M130 120l0 -2 2 0 0 -11 -2 0 0 -2 8 0c1,0 2,0 2,0 1,1 2,1 2,2 1,1 1,2 1,3 0,1 0,2 -1,3 0,0 -1,1 -2,1 -1,1 -1,1 -2,1l-3 0 0 3 2 0 0 2 -7 0zm5 -8l2 0c1,0 1,0 2,0 1,0 1,-1 1,-2 0,-1 0,-2 -1,-3 0,0 -1,0 -2,0l-2 0 0 5z"/>
  <path id="1" class="fil3" d="M144 111l0 -2 3 0c1,0 2,1 2,1l0 1c0,0 0,0 0,1 0,0 0,0 0,0l0 0c0,-1 0,-2 1,-2 1,-1 1,-1 2,-1 0,0 0,0 0,0 1,0 1,0 1,0l0 3c0,0 -1,0 -1,0 0,0 0,0 0,0 -1,0 -2,0 -2,1 -1,1 -1,2 -1,3l0 2 1 0 0 2 -6 0 0 -2 2 0 0 -6c0,-1 0,-1 0,-1l-2 0z"/>
  <path id="2" class="fil3" d="M155 119c-1,-1 -1,-3 -1,-4 0,-2 0,-3 1,-5 2,-1 3,-1 5,-1 1,0 3,0 4,1 1,2 2,3 2,5 0,1 -1,3 -2,4 -1,1 -3,1 -4,1 -2,0 -3,0 -5,-1zm1 -4c0,1 1,1 1,2 1,1 2,1 3,1 1,0 1,0 2,-1 1,-1 1,-1 1,-2 0,-1 0,-2 -1,-3 -1,-1 -1,-1 -2,-1 -1,0 -2,0 -3,1 0,1 -1,2 -1,3z"/>
  <path id="3" class="fil3" d="M167 111l0 -2 3 0c1,0 1,0 1,1l0 0 0 1c0,0 0,0 0,0l0 0c0,-1 1,-1 1,-1 1,-1 2,-1 3,-1 1,0 2,0 3,1 1,1 2,3 2,5 0,1 -1,3 -2,4 -1,1 -2,1 -3,1 -1,0 -2,0 -3,0 0,-1 0,-1 0,-1l-1 0 1 0c0,0 0,0 0,1l0 2 1 0 0 2 -6 0 0 -2 2 0 0 -10c0,-1 0,-1 -1,-1l-1 0zm4 4c0,1 1,1 1,2 1,1 1,1 2,1 1,0 2,0 2,-1 1,-1 1,-1 1,-2 0,-1 0,-2 -1,-3 0,-1 -1,-1 -2,-1 -1,0 -1,0 -2,1 0,1 -1,1 -1,3z"/>
  <path id="4" class="fil3" d="M181 115c0,-2 1,-4 2,-5 1,-1 2,-1 4,-1 1,0 3,0 3,1 1,1 2,3 2,4 0,0 0,0 0,1l0 0 -8 0c0,1 0,2 1,2 1,1 1,1 2,1 1,0 2,0 3,-1 0,0 0,0 0,0l2 2c-1,0 -1,0 -2,1 -1,0 -2,0 -3,0 -2,0 -3,0 -4,-1 -1,-1 -2,-3 -2,-4zm3 -2l5 0c0,0 0,-1 -1,-1 0,-1 -1,-1 -1,-1 -1,0 -2,0 -2,1 -1,0 -1,1 -1,1z"/>
  <path id="5" class="fil3" d="M193 111l0 -2 3 0c1,0 2,1 2,1l0 1c0,0 0,0 0,1 0,0 0,0 0,0l0 0c0,-1 0,-2 1,-2 1,-1 1,-1 2,-1 0,0 0,0 0,0 1,0 1,0 1,0l0 3c0,0 -1,0 -1,0 0,0 0,0 0,0 -1,0 -2,0 -2,1 -1,1 -1,2 -1,3l0 2 1 0 0 2 -6 0 0 -2 2 0 0 -6c0,-1 0,-1 0,-1l-2 0z"/>
  <path id="6" class="fil3" d="M202 111l0 -2 2 0 0 -3 3 0 0 3 2 0 0 2 -2 0 0 5c0,0 0,1 0,1 0,0 0,0 1,1 0,0 0,0 0,0 1,0 1,0 1,0 0,0 0,0 0,0 0,0 0,0 0,0l1 0 0 2 -1 0c0,0 0,0 0,0 -1,0 -1,0 -1,0 -1,0 -1,0 -2,0 0,0 0,-1 -1,-1 0,0 0,-1 -1,-1 0,-1 0,-1 0,-2l0 -5 -2 0z"/>
  <path id="7" class="fil3" d="M210 111l0 -2 6 0 0 2 -1 0 2 6c0,0 0,0 0,0 0,0 0,0 0,0 0,1 0,1 0,1l0 0 0 -1c0,0 0,0 0,0l2 -6 -1 0 0 -2 5 0 0 2 -1 0 -4 10c-1,3 -2,4 -5,4 0,0 -1,-1 -2,-1 0,0 0,0 0,0l1 -2c0,0 0,0 0,0 0,0 1,0 1,0 1,0 2,0 2,-1l1 -1 -4 -9 -2 0z"/>
  <path id="8" class="fil2" d="M230 120l0 -2 2 0 0 -11 -2 0 0 -2 6 0c2,0 3,0 3,0 1,0 2,1 2,2 1,0 1,1 1,2 0,1 0,2 -1,3 0,1 -1,1 -2,1l0 0 1 1c0,0 0,0 0,0l2 3c0,1 0,1 1,1l0 0 0 2 -1 0c-1,0 -1,0 -2,0 0,0 0,-1 -1,-1l-2 -4c0,0 0,-1 0,-1 0,0 -1,0 -1,0l-2 0 0 4 2 0 0 2 -6 0zm4 -8l3 0c1,0 1,0 2,-1 0,0 0,-1 0,-2 0,-1 0,-1 -1,-2 0,0 -1,0 -2,0l-2 0 0 5z"/>
  <path id="9" class="fil2" d="M245 115c0,-2 0,-4 1,-5 1,-1 3,-1 4,-1 2,0 3,0 4,1 1,1 1,3 1,4 0,0 0,0 0,1l0 0 -8 0c1,1 1,2 1,2 1,1 2,1 3,1 1,0 1,0 2,-1 0,0 1,0 1,0l1 2c0,0 -1,0 -1,1 -1,0 -2,0 -3,0 -2,0 -4,0 -5,-1 -1,-1 -1,-3 -1,-4zm2 -2l5 0c0,0 0,-1 0,-1 -1,-1 -1,-1 -2,-1 -1,0 -1,0 -2,1 0,0 0,1 -1,1z"/>
  <path id="10" class="fil2" d="M257 118l0 -2 2 0 0 1c0,0 0,1 1,1 0,0 1,0 1,0 1,0 1,0 1,0 1,0 1,-1 1,-1 0,0 -1,-1 -2,-2 0,0 0,0 -1,0 0,0 0,0 -1,0 0,0 0,0 0,0 -1,-1 -1,-1 -1,-1 0,0 -1,-1 -1,-1 0,0 0,-1 0,-1 0,-1 0,-2 1,-2 1,-1 2,-1 3,-1 1,0 2,0 3,0 1,1 1,1 1,2l0 1 -2 0 0 0c0,0 0,-1 0,-1 -1,0 -1,0 -2,0 0,0 0,0 -1,0 0,0 0,1 0,1 0,0 0,1 0,1 1,0 1,0 2,1 1,0 1,0 1,0 1,0 1,0 1,1 1,0 1,0 1,1 1,0 1,0 1,1 0,1 -1,2 -2,2 0,1 -2,1 -3,1 -1,0 -1,0 -2,0 -1,0 -1,0 -2,-1 0,0 0,-1 0,-1z"/>
  <path id="11" class="fil2" d="M269 119c-1,-1 -2,-3 -2,-4 0,-2 1,-3 2,-5 1,-1 3,-1 4,-1 2,0 3,0 5,1 1,2 1,3 1,5 0,1 0,3 -1,4 -2,1 -3,1 -5,1 -1,0 -3,0 -4,-1zm1 -4c0,1 0,1 1,2 1,1 1,1 2,1 1,0 2,0 3,-1 0,-1 0,-1 0,-2 0,-1 0,-2 0,-3 -1,-1 -2,-1 -3,-1 -1,0 -1,0 -2,1 -1,1 -1,2 -1,3z"/>
  <path id="12" class="fil2" d="M280 107l0 -2 4 0 0 11c0,1 0,1 1,2 0,0 0,0 0,0 1,0 1,0 1,0 0,0 0,0 0,0l0 0 0 2 0 0c0,0 -1,0 -1,0 -1,0 -2,0 -2,-1 -1,0 -1,-1 -1,-2l0 -10 -2 0z"/>
  <path id="13" class="fil2" d="M287 111l0 -2 4 0 0 7c0,0 1,1 1,1 0,1 1,1 1,1 1,0 2,-1 2,-1 1,-1 1,-2 1,-3l0 -3 -1 0 0 -2 4 0 0 9c0,0 0,0 0,0l1 0 0 2 -2 0c-1,0 -2,0 -2,-1l0 -1c0,0 0,0 0,0 0,0 0,0 0,0l0 0 0 0c0,0 0,0 0,0 0,1 0,1 -1,1 0,1 0,1 -1,1 -1,0 -1,0 -2,0 -2,0 -3,-1 -3,-4l0 -5 -2 0z"/>
  <path id="14" class="fil2" d="M301 111l0 -2 2 0 0 -3 3 0 0 3 2 0 0 2 -2 0 0 5c0,0 0,1 0,1 0,0 0,0 1,1 0,0 0,0 0,0 1,0 1,0 1,0 0,0 0,0 0,0 0,0 0,0 0,0l1 0 0 2 -1 0c0,0 0,0 0,0 -1,0 -1,0 -1,0 -1,0 -1,0 -2,0 0,0 0,-1 -1,-1 0,0 0,-1 -1,-1 0,-1 0,-1 0,-2l0 -5 -2 0z"/>
  <path id="15" class="fil2" d="M310 111l0 -2 4 0 0 9 2 0 0 2 -6 0 0 -2 2 0 0 -7 -2 0zm2 -4l0 -2 2 0 0 2 -2 0z"/>
  <path id="16" class="fil2" d="M319 119c-1,-1 -2,-3 -2,-4 0,-2 1,-3 2,-5 1,-1 3,-1 4,-1 2,0 4,0 5,1 1,2 2,3 2,5 0,1 -1,3 -2,4 -1,1 -3,1 -5,1 -1,0 -3,0 -4,-1zm1 -4c0,1 0,1 1,2 1,1 2,1 2,1 1,0 2,0 3,-1 0,-1 1,-1 1,-2 0,-1 -1,-2 -1,-3 -1,-1 -2,-1 -3,-1 0,0 -1,0 -2,1 -1,1 -1,2 -1,3z"/>
  <path id="17" class="fil2" d="M331 111l0 -2 3 0c1,0 1,0 1,1l0 1c0,0 0,0 0,0 0,0 0,0 0,0l0 0c0,0 1,0 1,0 0,-1 0,-1 0,-1 1,0 1,-1 2,-1 0,0 1,0 1,0 3,0 4,1 4,4l0 5 2 0 0 2 -5 0 0 -6c0,-1 0,-2 0,-2 0,-1 -1,-1 -1,-1 -1,0 -2,1 -3,1 0,1 0,2 0,3l0 3 1 0 0 2 -6 0 0 -2 2 0 0 -6c0,-1 0,-1 -1,-1l-1 0z"/>
  <path id="18" class="fil2" d="M346 118l0 -2 2 0 0 1c0,0 1,1 1,1 0,0 1,0 1,0 1,0 1,0 2,0 0,0 0,-1 0,-1 0,0 0,-1 -2,-2 0,0 0,0 0,0 -1,0 -1,0 -1,0 0,0 -1,0 -1,0 0,-1 -1,-1 -1,-1 0,0 0,-1 0,-1 -1,0 -1,-1 -1,-1 0,-1 1,-2 2,-2 1,-1 2,-1 3,-1 1,0 2,0 2,0 1,1 2,1 2,2l0 1 -3 0 0 0c0,0 0,-1 0,-1 0,0 -1,0 -1,0 -1,0 -1,0 -1,0 -1,0 -1,1 -1,1 0,0 0,1 1,1 0,0 1,0 1,1 1,0 1,0 2,0 0,0 0,0 1,1 0,0 1,0 1,1 0,0 0,0 0,1 0,1 0,2 -1,2 -1,1 -2,1 -4,1 0,0 -1,0 -2,0 0,0 -1,0 -1,-1 -1,0 -1,-1 -1,-1z"/>
  <polygon id="19" class="fil2" points="356,123 358,117 360,117 358,123 "/>
  <polygon id="20" class="fil2" points="368,120 368,118 370,118 370,107 368,107 368,105 375,105 375,107 373,107 373,118 377,118 377,115 380,115 380,120 "/>
  <polygon id="21" class="fil2" points="381,120 381,118 383,118 383,107 381,107 381,105 388,105 388,107 386,107 386,118 391,118 391,115 393,115 393,120 "/>
  <path id="22" class="fil2" d="M397 118c-2,-1 -3,-3 -3,-6 0,-2 1,-4 3,-5 1,-2 3,-2 5,-2 1,0 1,0 2,0 1,0 1,0 2,0 1,0 1,1 2,1 0,1 0,1 0,2l0 2 -2 0 0 -2c0,0 0,0 -1,0 0,-1 -1,-1 -1,-1 -1,0 -1,0 -2,0 -1,0 -2,0 -3,1 -1,1 -2,3 -2,4 0,2 1,3 2,4 1,1 2,2 4,2 0,0 0,0 1,0 0,0 1,0 1,-1 1,0 1,0 1,-1l0 -1 2 0 0 2c0,1 0,1 0,2 -1,0 -1,0 -2,1 0,0 -1,0 -2,0 0,0 -1,0 -2,0 -2,0 -4,0 -5,-2z"/>
  <path class="fil2" d="M89 127l-5 0 -6 -15c0,0 0,-1 0,-3l5 0 0 -10 -6 0 0 28 -5 0 0 -33 13 0c2,0 3,1 3,3l0 13c0,1 0,2 -1,2 -1,0 -2,0 -4,0l6 15z"/>
 </g>
</svg>
