<?xml version="1.0" encoding="UTF-8"?>
<!DOCTYPE svg PUBLIC "-//W3C//DTD SVG 1.1//EN" "http://www.w3.org/Graphics/SVG/1.1/DTD/svg11.dtd">
<!-- Creator: CorelDRAW X7 -->
<svg xmlns="http://www.w3.org/2000/svg" xml:space="preserve" width="200px" height="74px" version="1.1" style="shape-rendering:geometricPrecision; text-rendering:geometricPrecision; image-rendering:optimizeQuality; fill-rule:evenodd; clip-rule:evenodd"
viewBox="0 0 204 76"
 xmlns:xlink="http://www.w3.org/1999/xlink">
 <defs>
  <style type="text/css">
   <![CDATA[
    .fil1 {fill:#333333}
    .fil0 {fill:#CC9933}
    .fil2 {fill:#333333;fill-rule:nonzero}
    .fil3 {fill:#CC9933;fill-rule:nonzero}
   ]]>
  </style>
 </defs>
 <g id="Layer_x0020_1">
  <metadata id="CorelCorpID_0Corel-Layer"/>
  <path class="fil0" d="M44 34l0 4 0 3 0 2 0 3 -23 0 -1 0 0 1 0 3 0 6 0 8 -8 0 0 -4 0 -4 0 -10 0 -8 0 -13 16 -10 16 10 0 6 0 3zm-7 4l0 -4 0 -5 -9 -5 -8 5 0 9 1 0 16 0z"/>
  <polygon class="fil1" points="2,17 28,0 41,8 41,0 49,0 49,13 57,18 57,38 49,38 49,22 28,9 8,22 8,68 49,68 49,50 57,50 57,76 0,76 0,18 "/>
  <path class="fil2" d="M67 46c-2,-1 -3,-4 -3,-7 0,-2 1,-5 3,-7 2,-1 4,-2 7,-2 0,0 1,0 2,0 1,0 1,0 2,0 1,1 2,1 2,2 1,0 1,1 1,1l0 3 -3 0 0 -2c0,0 0,0 -1,-1 0,0 -1,0 -1,0 -1,0 -2,0 -2,0 -2,0 -4,0 -5,1 -1,2 -2,3 -2,5 0,2 1,4 2,5 2,2 3,2 5,2 1,0 1,0 2,0 0,0 1,0 1,0 1,-1 1,-1 1,-2l0 -1 3 0 0 3c0,0 0,1 0,1 -1,1 -2,1 -2,2 -1,0 -2,0 -3,0 -1,0 -1,0 -2,0 -3,0 -5,-1 -7,-3z"/>
  <path id="1" class="fil2" d="M84 49l0 -3 2 0 0 -13 -2 0 0 -3 9 0c1,0 2,0 3,0 1,1 2,1 3,2 0,1 1,2 1,3 0,2 -1,3 -1,4 -1,1 -2,1 -3,2l0 0 0 0c1,0 1,1 1,1l2 4c0,0 1,0 2,0l0 0 0 3 -2 0c-1,0 -1,0 -2,0 0,0 0,-1 -1,-1l-3 -5c0,-1 0,-1 0,-1 0,0 -1,0 -1,0l-2 0 0 4 2 0 0 3 -8 0zm6 -10l3 0c1,0 2,0 2,-1 1,0 1,-1 1,-2 0,-2 0,-3 -1,-3 -1,0 -2,0 -3,0l-2 0 0 6z"/>
  <polygon id="2" class="fil2" points="103,49 103,46 106,46 106,33 103,33 103,30 118,30 118,35 115,35 115,33 109,33 109,38 116,38 116,41 109,41 109,46 115,46 115,44 118,44 118,49 "/>
  <path id="3" class="fil2" d="M120 49l0 -3 1 0 6 -16 4 0 6 16 2 0 0 3 -8 0 0 -3 2 0 -1 -3 -6 0 -1 3 2 0 0 3 -7 0zm7 -9l4 0 -2 -5 0 -2c0,0 0,0 0,0l0 0 0 0c0,1 0,1 0,1 0,0 0,0 0,1l-2 5z"/>
  <polygon id="4" class="fil2" points="138,36 138,30 155,30 155,36 152,36 152,33 148,33 148,46 151,46 151,49 143,49 143,46 145,46 145,33 141,33 141,36 "/>
  <polygon id="5" class="fil2" points="157,49 157,46 159,46 159,33 157,33 157,30 165,30 165,33 163,33 163,46 165,46 165,49 "/>
  <path id="6" class="fil2" d="M167 33l0 -3 7 0 0 3 -2 0 4 10c0,1 0,1 0,1 0,0 0,1 0,1l0 0 0 0 1 0c0,0 0,-1 0,-1 0,0 0,0 0,-1l3 -10 -2 0 0 -3 8 0 0 3 -2 0 -6 16 -3 0 -6 -16 -2 0z"/>
  <polygon id="7" class="fil2" points="187,49 187,46 190,46 190,33 187,33 187,30 202,30 202,35 199,35 199,33 193,33 193,38 200,38 200,41 193,41 193,46 199,46 199,44 202,44 202,49 "/>
  <path class="fil3" d="M65 60l0 -1 1 0 0 -6 -1 0 0 -1 4 0c0,0 1,0 1,1 0,0 1,0 1,0 0,1 0,1 0,2 0,0 0,1 0,1 0,1 -1,1 -1,1 0,0 -1,0 -1,0l-2 0 0 2 1 0 0 1 -3 0zm2 -4l2 0c0,0 0,0 0,0 1,0 1,-1 1,-1 0,-1 0,-1 -1,-1 0,0 0,0 0,0l-2 0 0 2z"/>
  <path id="1" class="fil3" d="M72 56l0 -1 2 0c0,0 0,0 0,0l0 1c0,0 0,0 0,0 0,0 0,0 0,0l0 0c0,-1 1,-1 1,-1 0,0 1,-1 1,-1 0,0 0,0 0,0 0,0 0,0 0,0l0 2c0,0 0,0 0,0 0,0 0,0 0,0 -1,0 -1,0 -1,0 0,1 -1,1 -1,2l0 1 1 0 0 1 -3 0 0 -1 1 0 0 -3c0,0 0,0 0,0l-1 0z"/>
  <path id="2" class="fil3" d="M78 59c-1,0 -1,-1 -1,-2 0,-1 0,-1 1,-2 0,0 1,-1 2,-1 1,0 1,1 2,1 1,1 1,1 1,2 0,1 0,2 -1,2 -1,1 -1,1 -2,1 -1,0 -2,0 -2,-1zm0 -2c0,1 0,1 1,2 0,0 0,0 1,0 0,0 1,0 1,0 0,-1 1,-1 1,-2 0,0 -1,-1 -1,-1 0,0 -1,0 -1,0 -1,0 -1,0 -1,0 -1,0 -1,1 -1,1z"/>
  <path id="3" class="fil3" d="M84 56l0 -1 1 0c0,0 1,0 1,0l0 0 0 0c0,0 0,0 0,0l0 0c0,0 0,0 0,0 0,0 1,-1 1,-1 1,0 2,1 2,1 1,1 1,1 1,2 0,1 0,2 -1,2 0,1 -1,1 -2,1 0,0 -1,0 -1,0 0,0 0,0 0,-1l0 0 0 1c0,0 0,0 0,0l0 1 1 0 0 1 -3 0 0 -1 0 0 0 -5c0,0 0,0 0,0l0 0zm2 1c0,1 0,1 0,1 0,1 1,1 1,1 0,0 1,0 1,0 0,-1 0,-1 0,-2 0,0 0,-1 0,-1 0,0 0,0 -1,0 0,0 -1,0 -1,0 0,0 0,1 0,1z"/>
  <path id="4" class="fil3" d="M91 57c0,-1 0,-1 0,-2 1,0 2,-1 2,-1 1,0 2,1 2,1 1,1 1,1 1,2 0,0 0,0 0,0l0 0 -4 0c0,1 0,1 1,2 0,0 0,0 1,0 0,0 0,0 1,0 0,0 0,0 0,-1l1 1c0,0 -1,1 -1,1 0,0 -1,0 -1,0 -1,0 -2,0 -3,-1 0,0 0,-1 0,-2zm1 0l2 0c0,-1 0,-1 0,-1 0,0 0,-1 -1,-1 0,0 0,1 -1,1 0,0 0,0 0,1z"/>
  <path id="5" class="fil3" d="M97 56l0 -1 1 0c1,0 1,0 1,0l0 1c0,0 0,0 0,0 0,0 0,0 0,0l0 0c0,-1 0,-1 1,-1 0,0 0,-1 1,-1 0,0 0,0 0,0 0,0 0,0 0,0l0 2c0,0 0,0 0,0 0,0 0,0 -1,0 0,0 0,0 -1,0 0,1 0,1 0,2l0 1 1 0 0 1 -3 0 0 -1 1 0 0 -3c0,0 -1,0 -1,0l0 0z"/>
  <path id="6" class="fil3" d="M101 56l0 -1 1 0 0 -2 1 0 0 2 2 0 0 1 -2 0 0 2c0,0 0,0 1,0 0,1 0,1 0,1 0,0 0,0 0,0 0,0 0,0 1,0 0,0 0,0 0,0 0,0 0,0 0,0l0 0 0 1 0 0c0,0 0,0 -1,0 0,0 0,0 0,0 0,0 -1,0 -1,0 0,0 0,0 0,0 -1,-1 -1,-1 -1,-1 0,0 0,-1 0,-1l0 -2 -1 0z"/>
  <path id="7" class="fil3" d="M105 56l0 -1 3 0 0 1 -1 0 1 2c0,0 0,0 0,1 0,0 0,0 0,0 0,0 0,0 0,0l0 0 0 0c1,0 1,-1 1,-1l1 -2 -1 0 0 -1 3 0 0 1 -1 0 -2 5c-1,1 -1,1 -2,1 -1,0 -1,0 -1,0 0,0 -1,0 -1,0l1 -1c0,0 0,0 0,0 0,0 0,0 1,0 0,0 0,0 1,0l0 -1 -2 -4 -1 0z"/>
  <path id="8" class="fil2" d="M115 60l0 -1 1 0 0 -6 -1 0 0 -1 3 0c1,0 1,0 2,1 0,0 0,0 1,0 0,1 0,1 0,2 0,0 0,1 0,1 -1,0 -1,1 -1,1l0 0 0 0c0,0 0,0 0,0l1 2c0,0 0,0 0,0l1 0 0 1 -1 0c-1,0 -1,0 -1,0 0,0 0,0 0,-1l-1 -2c0,0 -1,0 -1,0 0,0 0,0 0,0l-1 0 0 2 1 0 0 1 -3 0zm2 -4l1 0c1,0 1,0 1,0 1,-1 1,-1 1,-1 0,-1 -1,-1 -1,-1 0,0 0,0 -1,0l-1 0 0 2z"/>
  <path id="9" class="fil2" d="M122 57c0,-1 1,-1 1,-2 1,0 1,-1 2,-1 1,0 1,1 2,1 0,1 1,1 1,2 0,0 0,0 0,0l0 0 -4 0c0,1 0,1 0,2 1,0 1,0 1,0 1,0 1,0 1,0 1,0 1,0 1,-1l0 1c0,0 0,1 0,1 -1,0 -1,0 -2,0 -1,0 -1,0 -2,-1 0,0 -1,-1 -1,-2zm2 0l2 0c0,-1 0,-1 0,-1 0,0 -1,-1 -1,-1 0,0 -1,1 -1,1 0,0 0,0 0,1z"/>
  <path id="10" class="fil2" d="M128 59l0 -1 1 0 0 1c0,0 1,0 1,0 0,0 0,0 1,0 0,0 0,0 0,0 0,0 0,0 0,0 0,-1 0,-1 -1,-1 0,0 0,0 0,0 0,0 0,0 0,-1 0,0 -1,0 -1,0 0,0 0,0 0,0 0,0 0,0 0,0 0,-1 0,-1 0,-1 0,-1 0,-1 0,-1 1,0 1,-1 2,-1 0,0 1,1 1,1 0,0 1,0 1,1l0 0 -2 0 0 0c0,0 0,0 0,0 0,0 0,-1 0,-1 -1,0 -1,1 -1,1 0,0 0,0 0,0 0,0 0,0 0,0 0,1 1,1 1,1 0,0 1,0 1,0 0,0 0,0 0,0 0,0 1,1 1,1 0,0 0,0 0,0 0,1 0,1 -1,2 0,0 -1,0 -1,0 -1,0 -1,0 -1,0 -1,0 -1,0 -1,0 -1,-1 -1,-1 -1,-1z"/>
  <path id="11" class="fil2" d="M134 59c0,0 0,-1 0,-2 0,-1 0,-1 0,-2 1,0 2,-1 3,-1 0,0 1,1 2,1 0,1 1,1 1,2 0,1 -1,2 -1,2 -1,1 -2,1 -2,1 -1,0 -2,0 -3,-1zm1 -2c0,1 0,1 0,2 1,0 1,0 2,0 0,0 0,0 1,0 0,-1 0,-1 0,-2 0,0 0,-1 0,-1 -1,0 -1,0 -1,0 -1,0 -1,0 -2,0 0,0 0,1 0,1z"/>
  <path id="12" class="fil2" d="M140 53l0 -1 2 0 0 6c0,0 0,1 0,1 0,0 1,0 1,0 0,0 0,0 0,0 0,0 0,0 0,0l0 0 0 1 0 0c0,0 0,0 0,0 -1,0 -1,0 -2,0 0,-1 0,-1 0,-2l0 -5 -1 0z"/>
  <path id="13" class="fil2" d="M143 56l0 -1 3 0 0 3c0,0 0,0 0,1 0,0 0,0 1,0 0,0 0,0 1,-1 0,0 0,-1 0,-1l0 -1 -1 0 0 -1 2 0 0 4c0,0 1,0 1,0l0 0 0 1 -1 0c-1,0 -1,0 -1,-1l0 0c0,0 0,0 0,0 0,0 0,0 0,0l0 0 0 0c0,0 0,0 0,0 0,0 0,0 0,1 -1,0 -1,0 -1,0 0,0 -1,0 -1,0 -1,0 -2,-1 -2,-2l0 -2 -1 0z"/>
  <path id="14" class="fil2" d="M151 56l0 -1 1 0 0 -2 1 0 0 2 1 0 0 1 -1 0 0 2c0,0 0,0 0,0 0,1 0,1 0,1 0,0 1,0 1,0 0,0 0,0 0,0 0,0 0,0 0,0 0,0 0,0 0,0l0 0 0 1 0 0c0,0 0,0 0,0 0,0 -1,0 -1,0 0,0 0,0 0,0 -1,0 -1,0 -1,0 0,-1 0,-1 0,-1 0,0 0,-1 0,-1l0 -2 -1 0z"/>
  <path id="15" class="fil2" d="M155 56l0 -1 2 0 0 4 1 0 0 1 -3 0 0 -1 1 0 0 -3 -1 0zm1 -2l0 -2 1 0 0 2 -1 0z"/>
  <path id="16" class="fil2" d="M160 59c-1,0 -1,-1 -1,-2 0,-1 0,-1 1,-2 0,0 1,-1 2,-1 1,0 1,1 2,1 0,1 1,1 1,2 0,1 -1,2 -1,2 -1,1 -1,1 -2,1 -1,0 -2,0 -2,-1zm0 -2c0,1 0,1 1,2 0,0 0,0 1,0 0,0 1,0 1,0 0,-1 0,-1 0,-2 0,0 0,-1 0,-1 0,0 -1,0 -1,0 -1,0 -1,0 -1,0 -1,0 -1,1 -1,1z"/>
  <path id="17" class="fil2" d="M166 56l0 -1 1 0c0,0 1,0 1,0l0 0c0,0 0,1 0,1 0,0 0,0 0,0l0 0c0,0 0,-1 0,-1 0,0 0,0 0,0 0,0 1,0 1,0 0,-1 0,-1 1,-1 1,0 2,1 2,3l0 2 0 0 0 1 -2 0 0 -3c0,-1 0,-1 0,-1 0,0 0,0 -1,0 0,0 -1,0 -1,0 0,1 0,1 0,2l0 1 1 0 0 1 -3 0 0 -1 0 0 0 -3c0,0 0,0 0,0l0 0z"/>
  <path id="18" class="fil2" d="M173 59l0 -1 1 0 0 1c0,0 0,0 0,0 1,0 1,0 1,0 1,0 1,0 1,0 0,0 0,0 0,0 0,-1 0,-1 -1,-1 0,0 0,0 0,0 0,0 0,0 -1,-1 0,0 0,0 0,0 0,0 0,0 0,0 -1,0 -1,0 -1,0 0,-1 0,-1 0,-1 0,-1 0,-1 1,-1 0,0 1,-1 1,-1 1,0 1,1 2,1 0,0 0,0 0,1l0 0 -1 0 0 0c0,0 0,0 0,0 0,0 0,-1 -1,-1 0,0 0,1 0,1 0,0 0,0 0,0 0,0 0,0 0,0 0,1 0,1 1,1 0,0 0,0 0,0 1,0 1,0 1,0 0,0 0,1 0,1 0,0 1,0 1,0 0,1 -1,1 -1,2 -1,0 -1,0 -2,0 0,0 0,0 -1,0 0,0 0,0 -1,0 0,-1 0,-1 0,-1z"/>
  <polygon id="19" class="fil2" points="178,61 179,59 180,59 179,61 "/>
  <polygon id="20" class="fil2" points="184,60 184,59 185,59 185,54 184,54 184,52 187,52 187,54 186,54 186,59 189,59 189,58 190,58 190,60 "/>
  <polygon id="21" class="fil2" points="191,60 191,59 192,59 192,54 191,54 191,52 194,52 194,54 193,54 193,59 195,59 195,58 196,58 196,60 "/>
  <path id="22" class="fil2" d="M198 59c0,-1 -1,-2 -1,-3 0,-1 1,-2 1,-3 1,0 2,-1 3,-1 0,0 1,0 1,0 0,0 1,0 1,1 0,0 1,0 1,0 0,0 0,1 0,1l0 1 -1 0 0 -1c0,0 0,0 0,0 -1,0 -1,0 -1,0 0,-1 -1,-1 -1,-1 -1,0 -1,1 -2,1 0,1 0,1 0,2 0,1 0,2 0,2 1,1 2,1 2,1 0,0 1,0 1,0 0,0 0,0 1,0 0,0 0,-1 0,-1l0 0 1 0 0 1c0,0 0,0 0,0 0,1 -1,1 -1,1 0,0 -1,0 -1,0 0,0 -1,0 -1,0 -1,0 -2,0 -3,-1z"/>
  <path class="fil2" d="M44 64l-2 0 -3 -8c0,0 0,0 0,-1l3 0 0 -6 -4 0 0 15 -2 0 0 -17 7 0c1,0 1,1 1,2l0 6c0,1 0,1 -1,1 0,0 0,0 -1,0l2 8z"/>
 </g>
</svg>
